<mxfile host="app.diagrams.net" modified="2020-08-25T12:47:05.553Z" agent="5.0 (X11; Linux x86_64) AppleWebKit/537.36 (KHTML, like Gecko) Chrome/84.0.4147.125 Safari/537.36" etag="zD_4QW2NiZUlucpz7E-d" version="13.5.8" type="github" pages="8">
  <diagram id="SHlIxUWun1tNeiMXr0mh" name="Temp OBJ">
    <mxGraphModel dx="1203" dy="493" grid="1" gridSize="10" guides="1" tooltips="1" connect="1" arrows="1" fold="1" page="1" pageScale="1" pageWidth="1169" pageHeight="827" math="0" shadow="0">
      <root>
        <mxCell id="0" />
        <mxCell id="1" parent="0" />
      </root>
    </mxGraphModel>
  </diagram>
  <diagram id="a4LECfSNi3ztoQqqU9N0" name="Paging">
    <mxGraphModel dx="1203" dy="493" grid="1" gridSize="10" guides="1" tooltips="1" connect="1" arrows="1" fold="1" page="1" pageScale="1" pageWidth="1169" pageHeight="827" math="0" shadow="0">
      <root>
        <mxCell id="pum2mSamRggLGp7CybUB-0" />
        <mxCell id="pum2mSamRggLGp7CybUB-1" parent="pum2mSamRggLGp7CybUB-0" />
      </root>
    </mxGraphModel>
  </diagram>
  <diagram id="ONaGcxcDHxKWhnWIQ2ye" name="Demand Paging">
    <mxGraphModel dx="1203" dy="493" grid="1" gridSize="10" guides="1" tooltips="1" connect="1" arrows="1" fold="1" page="1" pageScale="1" pageWidth="1169" pageHeight="827" math="0" shadow="0">
      <root>
        <mxCell id="1d-6ZDZ-7GPv0bI-bjg5-0" />
        <mxCell id="1d-6ZDZ-7GPv0bI-bjg5-1" parent="1d-6ZDZ-7GPv0bI-bjg5-0" />
      </root>
    </mxGraphModel>
  </diagram>
  <diagram id="MIjfFkTgclKjY3ADUEmI" name="Segmentation">
    <mxGraphModel dx="1203" dy="493" grid="1" gridSize="10" guides="1" tooltips="1" connect="1" arrows="1" fold="1" page="1" pageScale="1" pageWidth="1169" pageHeight="827" math="0" shadow="0">
      <root>
        <mxCell id="DDNQCfGdcolXv3RYDffz-0" />
        <mxCell id="DDNQCfGdcolXv3RYDffz-1" parent="DDNQCfGdcolXv3RYDffz-0" />
      </root>
    </mxGraphModel>
  </diagram>
  <diagram id="ZDmxlX9q_1cXYkZDUeu4" name="P + S">
    <mxGraphModel dx="1203" dy="493" grid="1" gridSize="10" guides="1" tooltips="1" connect="1" arrows="1" fold="1" page="1" pageScale="1" pageWidth="1169" pageHeight="827" math="0" shadow="0">
      <root>
        <mxCell id="Q2YZX1B1Ah4XS6rPsbND-0" />
        <mxCell id="Q2YZX1B1Ah4XS6rPsbND-1" parent="Q2YZX1B1Ah4XS6rPsbND-0" />
      </root>
    </mxGraphModel>
  </diagram>
  <diagram id="SOlZ13wG1nHFLA2_TpA6" name="First Fit">
    <mxGraphModel dx="1203" dy="493" grid="1" gridSize="10" guides="1" tooltips="1" connect="1" arrows="1" fold="1" page="1" pageScale="1" pageWidth="1169" pageHeight="827" math="0" shadow="0">
      <root>
        <mxCell id="cz1wYry7-GHUAsOfXXu8-0" />
        <mxCell id="cz1wYry7-GHUAsOfXXu8-1" parent="cz1wYry7-GHUAsOfXXu8-0" />
      </root>
    </mxGraphModel>
  </diagram>
  <diagram id="DvrX-a_PKh3kS70FpmyN" name="Worst Fit">
    <mxGraphModel dx="1203" dy="493" grid="1" gridSize="10" guides="1" tooltips="1" connect="1" arrows="1" fold="1" page="1" pageScale="1" pageWidth="1169" pageHeight="827" math="0" shadow="0">
      <root>
        <mxCell id="VOvBHnlHOEO9M4EUCo6k-0" />
        <mxCell id="VOvBHnlHOEO9M4EUCo6k-1" parent="VOvBHnlHOEO9M4EUCo6k-0" />
      </root>
    </mxGraphModel>
  </diagram>
  <diagram id="H5WKSpIuSB_oUAvSnddS" name="Best Fit">
    <mxGraphModel dx="1203" dy="493" grid="1" gridSize="10" guides="1" tooltips="1" connect="1" arrows="1" fold="1" page="1" pageScale="1" pageWidth="1169" pageHeight="827" math="0" shadow="0">
      <root>
        <mxCell id="NY01gNYi3UoM9nGi3Xe3-0" />
        <mxCell id="NY01gNYi3UoM9nGi3Xe3-1" parent="NY01gNYi3UoM9nGi3Xe3-0" />
      </root>
    </mxGraphModel>
  </diagram>
</mxfile>
